<svg width="14" height="14" viewBox="0 0 14 14" fill="none" xmlns="http://www.w3.org/2000/svg">
<g clip-path="url(#clip0_3871_6350)">
<path d="M12.8952 7.4394L7.61411 2.15829C7.54381 2.08924 7.46054 2.0348 7.3691 1.99809C7.27766 1.96138 7.17986 1.94313 7.08133 1.9444H6.26855L12.3469 7.95273L8.25189 12.0827C8.32159 12.1525 8.40434 12.2078 8.49542 12.2455C8.58651 12.2832 8.68413 12.3027 8.78272 12.3027C8.88131 12.3027 8.97894 12.2832 9.07002 12.2455C9.1611 12.2078 9.24385 12.1525 9.31355 12.0827L12.8952 8.50106C12.9649 8.43136 13.0203 8.34861 13.058 8.25753C13.0957 8.16645 13.1152 8.06882 13.1152 7.97023C13.1152 7.87164 13.0957 7.77401 13.058 7.68293C13.0203 7.59185 12.9649 7.5091 12.8952 7.4394Z" fill="#323232"/>
<path d="M3.03675 4.84987C3.32241 4.84987 3.55398 4.61831 3.55398 4.33265C3.55398 4.047 3.32241 3.81543 3.03675 3.81543C2.7511 3.81543 2.51953 4.047 2.51953 4.33265C2.51953 4.61831 2.7511 4.84987 3.03675 4.84987Z" fill="#323232"/>
<path d="M10.8033 7.45489L5.52221 2.16989C5.45287 2.09874 5.37004 2.04214 5.27855 2.00341C5.18707 1.96468 5.08878 1.9446 4.98943 1.94434H1.40388C1.20482 1.94434 1.01391 2.02341 0.873153 2.16417C0.732396 2.30492 0.65332 2.49583 0.65332 2.69489V6.28045C0.65359 6.37886 0.673312 6.47625 0.711354 6.56702C0.749396 6.65779 0.805006 6.74014 0.874987 6.80934L6.15999 12.0943C6.22969 12.1641 6.31244 12.2194 6.40352 12.2571C6.4946 12.2949 6.59223 12.3143 6.69082 12.3143C6.78941 12.3143 6.88703 12.2949 6.97812 12.2571C7.0692 12.2194 7.15195 12.1641 7.22165 12.0943L10.8033 8.51267C10.943 8.37206 11.0213 8.18194 11.0213 7.98378C11.0213 7.78562 10.943 7.5955 10.8033 7.45489ZM6.71221 11.546L1.43499 6.28045V2.72211H4.97388L10.255 7.96434L6.71221 11.546Z" fill="#323232"/>
</g>
<defs>
<clipPath id="clip0_3871_6350">
<rect width="14" height="14" fill="white"/>
</clipPath>
</defs>
</svg>
