<svg width="272" height="290" viewBox="0 0 272 290" fill="none" xmlns="http://www.w3.org/2000/svg">
<rect width="125" height="69" rx="2" fill="#F9F9F9"/>
<rect y="84" width="125" height="69" rx="2" fill="#F9F9F9"/>
<rect x="145" width="125" height="69" rx="2" fill="#F9F9F9"/>
<rect x="146.788" y="85.5164" width="124" height="68" rx="1.5" transform="rotate(1.91716 146.788 85.5164)" stroke="#8C8C8C" stroke-dasharray="2 2"/>
<path d="M42.967 210.816C44.2043 210.816 45.2657 211.04 46.151 211.488C47.0363 211.936 47.7137 212.581 48.183 213.424C48.6523 214.267 48.887 215.269 48.887 216.432C48.887 217.584 48.6523 218.581 48.183 219.424C47.7137 220.256 47.0363 220.896 46.151 221.344C45.2657 221.781 44.2043 222 42.967 222H39.655V210.816H42.967ZM42.967 221.072C44.5243 221.072 45.7083 220.667 46.519 219.856C47.3403 219.035 47.751 217.893 47.751 216.432C47.751 214.96 47.3403 213.813 46.519 212.992C45.7083 212.16 44.5243 211.744 42.967 211.744H40.775V221.072H42.967ZM52.0719 214.816C52.3172 214.272 52.6905 213.851 53.1919 213.552C53.7039 213.253 54.3279 213.104 55.0639 213.104V214.272H54.7599C53.9492 214.272 53.2985 214.491 52.8079 214.928C52.3172 215.365 52.0719 216.096 52.0719 217.12V222H50.9519V213.264H52.0719V214.816ZM56.2368 217.616C56.2368 216.72 56.4128 215.936 56.7648 215.264C57.1274 214.581 57.6234 214.059 58.2528 213.696C58.8928 213.323 59.6128 213.136 60.4128 213.136C61.2448 213.136 61.9594 213.328 62.5568 213.712C63.1648 214.096 63.6021 214.587 63.8688 215.184V213.264H64.9888V222H63.8688V220.064C63.5914 220.661 63.1488 221.157 62.5408 221.552C61.9434 221.936 61.2288 222.128 60.3968 222.128C59.6074 222.128 58.8928 221.941 58.2528 221.568C57.6234 221.195 57.1274 220.667 56.7648 219.984C56.4128 219.301 56.2368 218.512 56.2368 217.616ZM63.8688 217.632C63.8688 216.928 63.7248 216.309 63.4368 215.776C63.1488 215.243 62.7541 214.832 62.2528 214.544C61.7621 214.256 61.2181 214.112 60.6208 214.112C60.0021 214.112 59.4474 214.251 58.9568 214.528C58.4661 214.805 58.0768 215.211 57.7888 215.744C57.5114 216.267 57.3728 216.891 57.3728 217.616C57.3728 218.331 57.5114 218.96 57.7888 219.504C58.0768 220.037 58.4661 220.448 58.9568 220.736C59.4474 221.013 60.0021 221.152 60.6208 221.152C61.2181 221.152 61.7621 221.008 62.2528 220.72C62.7541 220.432 63.1488 220.021 63.4368 219.488C63.7248 218.955 63.8688 218.336 63.8688 217.632ZM71.2096 213.136C72.031 213.136 72.7456 213.328 73.3536 213.712C73.9616 214.096 74.399 214.581 74.6656 215.168V213.264H75.7856V222.224C75.7856 223.024 75.6096 223.733 75.2576 224.352C74.9163 224.971 74.4363 225.445 73.8176 225.776C73.199 226.117 72.495 226.288 71.7056 226.288C70.5856 226.288 69.6523 226.021 68.9056 225.488C68.1696 224.955 67.711 224.229 67.5296 223.312H68.6336C68.8256 223.92 69.1883 224.405 69.7216 224.768C70.2656 225.131 70.927 225.312 71.7056 225.312C72.271 225.312 72.7776 225.189 73.2256 224.944C73.6736 224.709 74.0256 224.357 74.2816 223.888C74.5376 223.419 74.6656 222.864 74.6656 222.224V220.064C74.3883 220.661 73.9456 221.157 73.3376 221.552C72.7403 221.936 72.031 222.128 71.2096 222.128C70.4096 222.128 69.6896 221.941 69.0496 221.568C68.4203 221.195 67.9243 220.667 67.5616 219.984C67.2096 219.301 67.0336 218.512 67.0336 217.616C67.0336 216.72 67.2096 215.936 67.5616 215.264C67.9243 214.581 68.4203 214.059 69.0496 213.696C69.6896 213.323 70.4096 213.136 71.2096 213.136ZM74.6656 217.632C74.6656 216.928 74.5216 216.309 74.2336 215.776C73.9456 215.243 73.551 214.832 73.0496 214.544C72.559 214.256 72.015 214.112 71.4176 214.112C70.799 214.112 70.2443 214.251 69.7536 214.528C69.263 214.805 68.8736 215.211 68.5856 215.744C68.3083 216.267 68.1696 216.891 68.1696 217.616C68.1696 218.331 68.3083 218.96 68.5856 219.504C68.8736 220.037 69.263 220.448 69.7536 220.736C70.2443 221.013 70.799 221.152 71.4176 221.152C72.015 221.152 72.559 221.008 73.0496 220.72C73.551 220.432 73.9456 220.021 74.2336 219.488C74.5216 218.955 74.6656 218.336 74.6656 217.632ZM82.2211 217.616C82.2211 216.72 82.3971 215.936 82.7491 215.264C83.1118 214.581 83.6078 214.059 84.2371 213.696C84.8771 213.323 85.5971 213.136 86.3971 213.136C87.2291 213.136 87.9438 213.328 88.5411 213.712C89.1491 214.096 89.5865 214.587 89.8531 215.184V213.264H90.9731V222H89.8531V220.064C89.5758 220.661 89.1331 221.157 88.5251 221.552C87.9278 221.936 87.2131 222.128 86.3811 222.128C85.5918 222.128 84.8771 221.941 84.2371 221.568C83.6078 221.195 83.1118 220.667 82.7491 219.984C82.3971 219.301 82.2211 218.512 82.2211 217.616ZM89.8531 217.632C89.8531 216.928 89.7091 216.309 89.4211 215.776C89.1331 215.243 88.7385 214.832 88.2371 214.544C87.7465 214.256 87.2025 214.112 86.6051 214.112C85.9865 214.112 85.4318 214.251 84.9411 214.528C84.4505 214.805 84.0611 215.211 83.7731 215.744C83.4958 216.267 83.3571 216.891 83.3571 217.616C83.3571 218.331 83.4958 218.96 83.7731 219.504C84.0611 220.037 84.4505 220.448 84.9411 220.736C85.4318 221.013 85.9865 221.152 86.6051 221.152C87.2025 221.152 87.7465 221.008 88.2371 220.72C88.7385 220.432 89.1331 220.021 89.4211 219.488C89.7091 218.955 89.8531 218.336 89.8531 217.632ZM97.626 213.104C98.6713 213.104 99.5247 213.429 100.186 214.08C100.847 214.72 101.178 215.653 101.178 216.88V222H100.074V217.008C100.074 216.059 99.834 215.333 99.354 214.832C98.8847 214.331 98.2393 214.08 97.418 214.08C96.5753 214.08 95.9033 214.347 95.402 214.88C94.9007 215.413 94.65 216.197 94.65 217.232V222H93.53V213.264H94.65V214.752C94.9273 214.219 95.3273 213.813 95.85 213.536C96.3727 213.248 96.9647 213.104 97.626 213.104ZM115.95 217.184C115.95 217.568 115.939 217.861 115.918 218.064H108.67C108.702 218.725 108.862 219.291 109.15 219.76C109.438 220.229 109.816 220.587 110.286 220.832C110.755 221.067 111.267 221.184 111.822 221.184C112.547 221.184 113.155 221.008 113.646 220.656C114.147 220.304 114.478 219.829 114.638 219.232H115.822C115.608 220.085 115.15 220.784 114.446 221.328C113.752 221.861 112.878 222.128 111.822 222.128C111 222.128 110.264 221.947 109.614 221.584C108.963 221.211 108.451 220.688 108.078 220.016C107.715 219.333 107.534 218.539 107.534 217.632C107.534 216.725 107.715 215.931 108.078 215.248C108.44 214.565 108.947 214.043 109.598 213.68C110.248 213.317 110.99 213.136 111.822 213.136C112.654 213.136 113.379 213.317 113.998 213.68C114.627 214.043 115.107 214.533 115.438 215.152C115.779 215.76 115.95 216.437 115.95 217.184ZM114.814 217.152C114.824 216.501 114.691 215.947 114.414 215.488C114.147 215.029 113.779 214.683 113.31 214.448C112.84 214.213 112.328 214.096 111.774 214.096C110.942 214.096 110.232 214.363 109.646 214.896C109.059 215.429 108.734 216.181 108.67 217.152H114.814ZM122.575 222L120.319 218.48L118.143 222H116.959L119.775 217.632L116.991 213.264H118.255L120.479 216.736L122.639 213.264H123.807L121.023 217.584L123.839 222H122.575ZM125.918 211.616C125.694 211.616 125.502 211.536 125.342 211.376C125.182 211.216 125.102 211.019 125.102 210.784C125.102 210.549 125.182 210.357 125.342 210.208C125.502 210.048 125.694 209.968 125.918 209.968C126.142 209.968 126.334 210.048 126.494 210.208C126.654 210.357 126.734 210.549 126.734 210.784C126.734 211.019 126.654 211.216 126.494 211.376C126.334 211.536 126.142 211.616 125.918 211.616ZM126.478 213.264V222H125.358V213.264H126.478ZM132.022 222.128C131.02 222.128 130.198 221.899 129.558 221.44C128.929 220.971 128.577 220.336 128.502 219.536H129.654C129.708 220.027 129.937 220.427 130.342 220.736C130.758 221.035 131.313 221.184 132.006 221.184C132.614 221.184 133.089 221.04 133.43 220.752C133.782 220.464 133.958 220.107 133.958 219.68C133.958 219.381 133.862 219.136 133.67 218.944C133.478 218.752 133.233 218.603 132.934 218.496C132.646 218.379 132.252 218.256 131.75 218.128C131.1 217.957 130.572 217.787 130.166 217.616C129.761 217.445 129.414 217.195 129.126 216.864C128.849 216.523 128.71 216.069 128.71 215.504C128.71 215.077 128.838 214.683 129.094 214.32C129.35 213.957 129.713 213.669 130.182 213.456C130.652 213.243 131.185 213.136 131.782 213.136C132.721 213.136 133.478 213.376 134.054 213.856C134.63 214.325 134.94 214.976 134.982 215.808H133.862C133.83 215.296 133.628 214.885 133.254 214.576C132.892 214.256 132.39 214.096 131.75 214.096C131.185 214.096 130.726 214.229 130.374 214.496C130.022 214.763 129.846 215.093 129.846 215.488C129.846 215.829 129.948 216.112 130.15 216.336C130.364 216.549 130.625 216.72 130.934 216.848C131.244 216.965 131.66 217.099 132.182 217.248C132.812 217.419 133.313 217.584 133.686 217.744C134.06 217.904 134.38 218.139 134.646 218.448C134.913 218.757 135.052 219.168 135.062 219.68C135.062 220.149 134.934 220.571 134.678 220.944C134.422 221.307 134.065 221.595 133.606 221.808C133.148 222.021 132.62 222.128 132.022 222.128ZM138.627 214.208V219.632C138.627 220.165 138.728 220.533 138.931 220.736C139.133 220.939 139.491 221.04 140.003 221.04H141.027V222H139.827C139.037 222 138.451 221.819 138.067 221.456C137.683 221.083 137.491 220.475 137.491 219.632V214.208H136.275V213.264H137.491V211.072H138.627V213.264H141.027V214.208H138.627ZM143.434 211.616C143.21 211.616 143.018 211.536 142.858 211.376C142.698 211.216 142.618 211.019 142.618 210.784C142.618 210.549 142.698 210.357 142.858 210.208C143.018 210.048 143.21 209.968 143.434 209.968C143.658 209.968 143.85 210.048 144.01 210.208C144.17 210.357 144.25 210.549 144.25 210.784C144.25 211.019 144.17 211.216 144.01 211.376C143.85 211.536 143.658 211.616 143.434 211.616ZM143.994 213.264V222H142.874V213.264H143.994ZM150.626 213.104C151.671 213.104 152.525 213.429 153.186 214.08C153.847 214.72 154.178 215.653 154.178 216.88V222H153.074V217.008C153.074 216.059 152.834 215.333 152.354 214.832C151.885 214.331 151.239 214.08 150.418 214.08C149.575 214.08 148.903 214.347 148.402 214.88C147.901 215.413 147.65 216.197 147.65 217.232V222H146.53V213.264H147.65V214.752C147.927 214.219 148.327 213.813 148.85 213.536C149.373 213.248 149.965 213.104 150.626 213.104ZM160.319 213.136C161.14 213.136 161.855 213.328 162.463 213.712C163.071 214.096 163.508 214.581 163.775 215.168V213.264H164.895V222.224C164.895 223.024 164.719 223.733 164.367 224.352C164.026 224.971 163.546 225.445 162.927 225.776C162.308 226.117 161.604 226.288 160.815 226.288C159.695 226.288 158.762 226.021 158.015 225.488C157.279 224.955 156.82 224.229 156.639 223.312H157.743C157.935 223.92 158.298 224.405 158.831 224.768C159.375 225.131 160.036 225.312 160.815 225.312C161.38 225.312 161.887 225.189 162.335 224.944C162.783 224.709 163.135 224.357 163.391 223.888C163.647 223.419 163.775 222.864 163.775 222.224V220.064C163.498 220.661 163.055 221.157 162.447 221.552C161.85 221.936 161.14 222.128 160.319 222.128C159.519 222.128 158.799 221.941 158.159 221.568C157.53 221.195 157.034 220.667 156.671 219.984C156.319 219.301 156.143 218.512 156.143 217.616C156.143 216.72 156.319 215.936 156.671 215.264C157.034 214.581 157.53 214.059 158.159 213.696C158.799 213.323 159.519 213.136 160.319 213.136ZM163.775 217.632C163.775 216.928 163.631 216.309 163.343 215.776C163.055 215.243 162.66 214.832 162.159 214.544C161.668 214.256 161.124 214.112 160.527 214.112C159.908 214.112 159.354 214.251 158.863 214.528C158.372 214.805 157.983 215.211 157.695 215.744C157.418 216.267 157.279 216.891 157.279 217.616C157.279 218.331 157.418 218.96 157.695 219.504C157.983 220.037 158.372 220.448 158.863 220.736C159.354 221.013 159.908 221.152 160.527 221.152C161.124 221.152 161.668 221.008 162.159 220.72C162.66 220.432 163.055 220.021 163.343 219.488C163.631 218.955 163.775 218.336 163.775 217.632ZM178.387 210.816V211.744H175.283V222H174.163V211.744H171.043V210.816H178.387ZM179.643 217.616C179.643 216.72 179.819 215.936 180.171 215.264C180.534 214.581 181.03 214.059 181.659 213.696C182.299 213.323 183.019 213.136 183.819 213.136C184.651 213.136 185.366 213.328 185.963 213.712C186.571 214.096 187.008 214.587 187.275 215.184V213.264H188.395V222H187.275V220.064C186.998 220.661 186.555 221.157 185.947 221.552C185.35 221.936 184.635 222.128 183.803 222.128C183.014 222.128 182.299 221.941 181.659 221.568C181.03 221.195 180.534 220.667 180.171 219.984C179.819 219.301 179.643 218.512 179.643 217.616ZM187.275 217.632C187.275 216.928 187.131 216.309 186.843 215.776C186.555 215.243 186.16 214.832 185.659 214.544C185.168 214.256 184.624 214.112 184.027 214.112C183.408 214.112 182.854 214.251 182.363 214.528C181.872 214.805 181.483 215.211 181.195 215.744C180.918 216.267 180.779 216.891 180.779 217.616C180.779 218.331 180.918 218.96 181.195 219.504C181.483 220.037 181.872 220.448 182.363 220.736C182.854 221.013 183.408 221.152 184.027 221.152C184.624 221.152 185.168 221.008 185.659 220.72C186.16 220.432 186.555 220.021 186.843 219.488C187.131 218.955 187.275 218.336 187.275 217.632ZM193.96 222.128C192.957 222.128 192.136 221.899 191.496 221.44C190.867 220.971 190.515 220.336 190.44 219.536H191.592C191.645 220.027 191.875 220.427 192.28 220.736C192.696 221.035 193.251 221.184 193.944 221.184C194.552 221.184 195.027 221.04 195.368 220.752C195.72 220.464 195.896 220.107 195.896 219.68C195.896 219.381 195.8 219.136 195.608 218.944C195.416 218.752 195.171 218.603 194.872 218.496C194.584 218.379 194.189 218.256 193.688 218.128C193.037 217.957 192.509 217.787 192.104 217.616C191.699 217.445 191.352 217.195 191.064 216.864C190.787 216.523 190.648 216.069 190.648 215.504C190.648 215.077 190.776 214.683 191.032 214.32C191.288 213.957 191.651 213.669 192.12 213.456C192.589 213.243 193.123 213.136 193.72 213.136C194.659 213.136 195.416 213.376 195.992 213.856C196.568 214.325 196.877 214.976 196.92 215.808H195.8C195.768 215.296 195.565 214.885 195.192 214.576C194.829 214.256 194.328 214.096 193.688 214.096C193.123 214.096 192.664 214.229 192.312 214.496C191.96 214.763 191.784 215.093 191.784 215.488C191.784 215.829 191.885 216.112 192.088 216.336C192.301 216.549 192.563 216.72 192.872 216.848C193.181 216.965 193.597 217.099 194.12 217.248C194.749 217.419 195.251 217.584 195.624 217.744C195.997 217.904 196.317 218.139 196.584 218.448C196.851 218.757 196.989 219.168 197 219.68C197 220.149 196.872 220.571 196.616 220.944C196.36 221.307 196.003 221.595 195.544 221.808C195.085 222.021 194.557 222.128 193.96 222.128ZM203.828 222L200.228 218.08V222H199.108V210.16H200.228V217.168L203.748 213.264H205.316L201.172 217.616L205.348 222H203.828ZM210.674 217.616C210.674 216.72 210.85 215.936 211.202 215.264C211.565 214.581 212.061 214.059 212.69 213.696C213.33 213.323 214.05 213.136 214.85 213.136C215.682 213.136 216.397 213.328 216.994 213.712C217.602 214.096 218.04 214.587 218.306 215.184V213.264H219.426V222H218.306V220.064C218.029 220.661 217.586 221.157 216.978 221.552C216.381 221.936 215.666 222.128 214.834 222.128C214.045 222.128 213.33 221.941 212.69 221.568C212.061 221.195 211.565 220.667 211.202 219.984C210.85 219.301 210.674 218.512 210.674 217.616ZM218.306 217.632C218.306 216.928 218.162 216.309 217.874 215.776C217.586 215.243 217.192 214.832 216.69 214.544C216.2 214.256 215.656 214.112 215.058 214.112C214.44 214.112 213.885 214.251 213.394 214.528C212.904 214.805 212.514 215.211 212.226 215.744C211.949 216.267 211.81 216.891 211.81 217.616C211.81 218.331 211.949 218.96 212.226 219.504C212.514 220.037 212.904 220.448 213.394 220.736C213.885 221.013 214.44 221.152 215.058 221.152C215.656 221.152 216.2 221.008 216.69 220.72C217.192 220.432 217.586 220.021 217.874 219.488C218.162 218.955 218.306 218.336 218.306 217.632ZM226.079 213.104C227.124 213.104 227.978 213.429 228.639 214.08C229.3 214.72 229.631 215.653 229.631 216.88V222H228.527V217.008C228.527 216.059 228.287 215.333 227.807 214.832C227.338 214.331 226.692 214.08 225.871 214.08C225.028 214.08 224.356 214.347 223.855 214.88C223.354 215.413 223.103 216.197 223.103 217.232V222H221.983V213.264H223.103V214.752C223.38 214.219 223.78 213.813 224.303 213.536C224.826 213.248 225.418 213.104 226.079 213.104ZM231.596 217.616C231.596 216.72 231.777 215.936 232.14 215.264C232.503 214.581 232.999 214.059 233.628 213.696C234.268 213.323 234.988 213.136 235.788 213.136C236.556 213.136 237.249 213.323 237.868 213.696C238.487 214.069 238.94 214.555 239.228 215.152V210.16H240.348V222H239.228V220.048C238.961 220.656 238.524 221.157 237.916 221.552C237.308 221.936 236.593 222.128 235.772 222.128C234.972 222.128 234.252 221.941 233.612 221.568C232.983 221.195 232.487 220.667 232.124 219.984C231.772 219.301 231.596 218.512 231.596 217.616ZM239.228 217.632C239.228 216.928 239.084 216.309 238.796 215.776C238.508 215.243 238.113 214.832 237.612 214.544C237.121 214.256 236.577 214.112 235.98 214.112C235.361 214.112 234.807 214.251 234.316 214.528C233.825 214.805 233.436 215.211 233.148 215.744C232.871 216.267 232.732 216.891 232.732 217.616C232.732 218.331 232.871 218.96 233.148 219.504C233.436 220.037 233.825 220.448 234.316 220.736C234.807 221.013 235.361 221.152 235.98 221.152C236.577 221.152 237.121 221.008 237.612 220.72C238.113 220.432 238.508 220.021 238.796 219.488C239.084 218.955 239.228 218.336 239.228 217.632ZM35.3383 241.616C35.3383 240.72 35.5196 239.936 35.8823 239.264C36.245 238.581 36.741 238.059 37.3703 237.696C38.0103 237.323 38.7303 237.136 39.5303 237.136C40.2983 237.136 40.9916 237.323 41.6103 237.696C42.229 238.069 42.6823 238.555 42.9703 239.152V234.16H44.0903V246H42.9703V244.048C42.7036 244.656 42.2663 245.157 41.6583 245.552C41.0503 245.936 40.3356 246.128 39.5143 246.128C38.7143 246.128 37.9943 245.941 37.3543 245.568C36.725 245.195 36.229 244.667 35.8663 243.984C35.5143 243.301 35.3383 242.512 35.3383 241.616ZM42.9703 241.632C42.9703 240.928 42.8263 240.309 42.5383 239.776C42.2503 239.243 41.8556 238.832 41.3543 238.544C40.8636 238.256 40.3196 238.112 39.7223 238.112C39.1036 238.112 38.549 238.251 38.0583 238.528C37.5676 238.805 37.1783 239.211 36.8903 239.744C36.613 240.267 36.4743 240.891 36.4743 241.616C36.4743 242.331 36.613 242.96 36.8903 243.504C37.1783 244.037 37.5676 244.448 38.0583 244.736C38.549 245.013 39.1036 245.152 39.7223 245.152C40.3196 245.152 40.8636 245.008 41.3543 244.72C41.8556 244.432 42.2503 244.021 42.5383 243.488C42.8263 242.955 42.9703 242.336 42.9703 241.632ZM47.7672 238.816C48.0125 238.272 48.3859 237.851 48.8872 237.552C49.3992 237.253 50.0232 237.104 50.7592 237.104V238.272H50.4552C49.6445 238.272 48.9939 238.491 48.5032 238.928C48.0125 239.365 47.7672 240.096 47.7672 241.12V246H46.6472V237.264H47.7672V238.816ZM56.2681 246.128C55.4467 246.128 54.7054 245.947 54.0441 245.584C53.3934 245.211 52.8761 244.688 52.4921 244.016C52.1187 243.333 51.9321 242.539 51.9321 241.632C51.9321 240.725 52.1241 239.936 52.5081 239.264C52.8921 238.581 53.4147 238.059 54.0761 237.696C54.7374 237.323 55.4787 237.136 56.3001 237.136C57.1214 237.136 57.8627 237.323 58.5241 237.696C59.1961 238.059 59.7187 238.581 60.0921 239.264C60.4761 239.936 60.6681 240.725 60.6681 241.632C60.6681 242.528 60.4761 243.317 60.0921 244C59.7081 244.683 59.1801 245.211 58.5081 245.584C57.8361 245.947 57.0894 246.128 56.2681 246.128ZM56.2681 245.152C56.8441 245.152 57.3774 245.024 57.8681 244.768C58.3587 244.501 58.7534 244.107 59.0521 243.584C59.3614 243.051 59.5161 242.4 59.5161 241.632C59.5161 240.864 59.3667 240.219 59.0681 239.696C58.7694 239.163 58.3747 238.768 57.8841 238.512C57.3934 238.245 56.8601 238.112 56.2841 238.112C55.7081 238.112 55.1747 238.245 54.6841 238.512C54.1934 238.768 53.7987 239.163 53.5001 239.696C53.2121 240.219 53.0681 240.864 53.0681 241.632C53.0681 242.4 53.2121 243.051 53.5001 243.584C53.7987 244.107 54.1881 244.501 54.6681 244.768C55.1587 245.024 55.6921 245.152 56.2681 245.152ZM63.8137 239.184C64.091 238.597 64.5284 238.112 65.1257 237.728C65.7337 237.333 66.4537 237.136 67.2857 237.136C68.075 237.136 68.7844 237.323 69.4137 237.696C70.0537 238.059 70.5497 238.581 70.9017 239.264C71.2644 239.936 71.4457 240.72 71.4457 241.616C71.4457 242.512 71.2644 243.301 70.9017 243.984C70.5497 244.667 70.0537 245.195 69.4137 245.568C68.7844 245.941 68.075 246.128 67.2857 246.128C66.4644 246.128 65.7497 245.936 65.1417 245.552C64.5337 245.157 64.091 244.667 63.8137 244.08V250.128H62.7097V237.264H63.8137V239.184ZM70.3097 241.616C70.3097 240.891 70.1657 240.267 69.8777 239.744C69.6004 239.211 69.2164 238.805 68.7257 238.528C68.235 238.251 67.6804 238.112 67.0617 238.112C66.4644 238.112 65.915 238.256 65.4137 238.544C64.923 238.832 64.5337 239.243 64.2457 239.776C63.9577 240.309 63.8137 240.928 63.8137 241.632C63.8137 242.336 63.9577 242.955 64.2457 243.488C64.5337 244.021 64.923 244.432 65.4137 244.72C65.915 245.008 66.4644 245.152 67.0617 245.152C67.6804 245.152 68.235 245.013 68.7257 244.736C69.2164 244.448 69.6004 244.037 69.8777 243.504C70.1657 242.96 70.3097 242.331 70.3097 241.616ZM78.4572 235.616C78.2332 235.616 78.0412 235.536 77.8812 235.376C77.7212 235.216 77.6412 235.019 77.6412 234.784C77.6412 234.549 77.7212 234.357 77.8812 234.208C78.0412 234.048 78.2332 233.968 78.4572 233.968C78.6812 233.968 78.8732 234.048 79.0332 234.208C79.1932 234.357 79.2732 234.549 79.2732 234.784C79.2732 235.019 79.1932 235.216 79.0332 235.376C78.8732 235.536 78.6812 235.616 78.4572 235.616ZM79.0172 237.264V246H77.8972V237.264H79.0172ZM83.0094 238.208V243.632C83.0094 244.165 83.1108 244.533 83.3134 244.736C83.5161 244.939 83.8734 245.04 84.3854 245.04H85.4094V246H84.2094C83.4201 246 82.8334 245.819 82.4494 245.456C82.0654 245.083 81.8734 244.475 81.8734 243.632V238.208H80.6574V237.264H81.8734V235.072H83.0094V237.264H85.4094V238.208H83.0094ZM99.2152 237.264V246H98.0952V244.464C97.8392 245.008 97.4445 245.424 96.9112 245.712C96.3779 246 95.7805 246.144 95.1192 246.144C94.0739 246.144 93.2205 245.824 92.5592 245.184C91.8979 244.533 91.5672 243.595 91.5672 242.368V237.264H92.6712V242.24C92.6712 243.189 92.9059 243.915 93.3752 244.416C93.8552 244.917 94.5059 245.168 95.3272 245.168C96.1699 245.168 96.8419 244.901 97.3432 244.368C97.8445 243.835 98.0952 243.051 98.0952 242.016V237.264H99.2152ZM105.868 237.104C106.914 237.104 107.767 237.429 108.428 238.08C109.09 238.72 109.42 239.653 109.42 240.88V246H108.316V241.008C108.316 240.059 108.076 239.333 107.596 238.832C107.127 238.331 106.482 238.08 105.66 238.08C104.818 238.08 104.146 238.347 103.644 238.88C103.143 239.413 102.892 240.197 102.892 241.232V246H101.772V237.264H102.892V238.752C103.17 238.219 103.57 237.813 104.092 237.536C104.615 237.248 105.207 237.104 105.868 237.104ZM111.385 241.616C111.385 240.72 111.567 239.936 111.929 239.264C112.292 238.581 112.788 238.059 113.417 237.696C114.057 237.323 114.777 237.136 115.577 237.136C116.345 237.136 117.039 237.323 117.657 237.696C118.276 238.069 118.729 238.555 119.017 239.152V234.16H120.137V246H119.017V244.048C118.751 244.656 118.313 245.157 117.705 245.552C117.097 245.936 116.383 246.128 115.561 246.128C114.761 246.128 114.041 245.941 113.401 245.568C112.772 245.195 112.276 244.667 111.913 243.984C111.561 243.301 111.385 242.512 111.385 241.616ZM119.017 241.632C119.017 240.928 118.873 240.309 118.585 239.776C118.297 239.243 117.903 238.832 117.401 238.544C116.911 238.256 116.367 238.112 115.769 238.112C115.151 238.112 114.596 238.251 114.105 238.528C113.615 238.805 113.225 239.211 112.937 239.744C112.66 240.267 112.521 240.891 112.521 241.616C112.521 242.331 112.66 242.96 112.937 243.504C113.225 244.037 113.615 244.448 114.105 244.736C114.596 245.013 115.151 245.152 115.769 245.152C116.367 245.152 116.911 245.008 117.401 244.72C117.903 244.432 118.297 244.021 118.585 243.488C118.873 242.955 119.017 242.336 119.017 241.632ZM130.598 241.184C130.598 241.568 130.587 241.861 130.566 242.064H123.318C123.35 242.725 123.51 243.291 123.798 243.76C124.086 244.229 124.465 244.587 124.934 244.832C125.403 245.067 125.915 245.184 126.47 245.184C127.195 245.184 127.803 245.008 128.294 244.656C128.795 244.304 129.126 243.829 129.286 243.232H130.47C130.257 244.085 129.798 244.784 129.094 245.328C128.401 245.861 127.526 246.128 126.47 246.128C125.649 246.128 124.913 245.947 124.262 245.584C123.611 245.211 123.099 244.688 122.726 244.016C122.363 243.333 122.182 242.539 122.182 241.632C122.182 240.725 122.363 239.931 122.726 239.248C123.089 238.565 123.595 238.043 124.246 237.68C124.897 237.317 125.638 237.136 126.47 237.136C127.302 237.136 128.027 237.317 128.646 237.68C129.275 238.043 129.755 238.533 130.086 239.152C130.427 239.76 130.598 240.437 130.598 241.184ZM129.462 241.152C129.473 240.501 129.339 239.947 129.062 239.488C128.795 239.029 128.427 238.683 127.958 238.448C127.489 238.213 126.977 238.096 126.422 238.096C125.59 238.096 124.881 238.363 124.294 238.896C123.707 239.429 123.382 240.181 123.318 241.152H129.462ZM133.767 238.816C134.013 238.272 134.386 237.851 134.887 237.552C135.399 237.253 136.023 237.104 136.759 237.104V238.272H136.455C135.645 238.272 134.994 238.491 134.503 238.928C134.013 239.365 133.767 240.096 133.767 241.12V246H132.647V237.264H133.767V238.816ZM144.291 238.208V243.632C144.291 244.165 144.392 244.533 144.595 244.736C144.797 244.939 145.155 245.04 145.667 245.04H146.691V246H145.491C144.701 246 144.115 245.819 143.731 245.456C143.347 245.083 143.155 244.475 143.155 243.632V238.208H141.939V237.264H143.155V235.072H144.291V237.264H146.691V238.208H144.291ZM152.698 237.104C153.359 237.104 153.951 237.243 154.474 237.52C155.007 237.797 155.423 238.224 155.722 238.8C156.031 239.365 156.186 240.059 156.186 240.88V246H155.082V241.008C155.082 240.059 154.842 239.333 154.362 238.832C153.892 238.331 153.247 238.08 152.426 238.08C151.583 238.08 150.911 238.347 150.41 238.88C149.908 239.413 149.658 240.197 149.658 241.232V246H148.538V234.16H149.658V238.752C149.935 238.229 150.34 237.824 150.874 237.536C151.418 237.248 152.026 237.104 152.698 237.104ZM159.223 235.616C158.999 235.616 158.807 235.536 158.647 235.376C158.487 235.216 158.407 235.019 158.407 234.784C158.407 234.549 158.487 234.357 158.647 234.208C158.807 234.048 158.999 233.968 159.223 233.968C159.447 233.968 159.639 234.048 159.799 234.208C159.959 234.357 160.039 234.549 160.039 234.784C160.039 235.019 159.959 235.216 159.799 235.376C159.639 235.536 159.447 235.616 159.223 235.616ZM159.783 237.264V246H158.663V237.264H159.783ZM165.327 246.128C164.324 246.128 163.503 245.899 162.863 245.44C162.234 244.971 161.882 244.336 161.807 243.536H162.959C163.012 244.027 163.242 244.427 163.647 244.736C164.063 245.035 164.618 245.184 165.311 245.184C165.919 245.184 166.394 245.04 166.735 244.752C167.087 244.464 167.263 244.107 167.263 243.68C167.263 243.381 167.167 243.136 166.975 242.944C166.783 242.752 166.538 242.603 166.239 242.496C165.951 242.379 165.556 242.256 165.055 242.128C164.404 241.957 163.876 241.787 163.471 241.616C163.066 241.445 162.719 241.195 162.431 240.864C162.154 240.523 162.015 240.069 162.015 239.504C162.015 239.077 162.143 238.683 162.399 238.32C162.655 237.957 163.018 237.669 163.487 237.456C163.956 237.243 164.49 237.136 165.087 237.136C166.026 237.136 166.783 237.376 167.359 237.856C167.935 238.325 168.244 238.976 168.287 239.808H167.167C167.135 239.296 166.932 238.885 166.559 238.576C166.196 238.256 165.695 238.096 165.055 238.096C164.49 238.096 164.031 238.229 163.679 238.496C163.327 238.763 163.151 239.093 163.151 239.488C163.151 239.829 163.252 240.112 163.455 240.336C163.668 240.549 163.93 240.72 164.239 240.848C164.548 240.965 164.964 241.099 165.487 241.248C166.116 241.419 166.618 241.584 166.991 241.744C167.364 241.904 167.684 242.139 167.951 242.448C168.218 242.757 168.356 243.168 168.367 243.68C168.367 244.149 168.239 244.571 167.983 244.944C167.727 245.307 167.37 245.595 166.911 245.808C166.452 246.021 165.924 246.128 165.327 246.128ZM174.354 241.632C174.354 240.725 174.535 239.936 174.898 239.264C175.261 238.581 175.762 238.059 176.402 237.696C177.042 237.323 177.773 237.136 178.594 237.136C179.671 237.136 180.557 237.403 181.25 237.936C181.954 238.469 182.407 239.195 182.61 240.112H181.41C181.261 239.483 180.935 238.992 180.434 238.64C179.943 238.277 179.33 238.096 178.594 238.096C178.007 238.096 177.479 238.229 177.01 238.496C176.541 238.763 176.167 239.163 175.89 239.696C175.623 240.219 175.49 240.864 175.49 241.632C175.49 242.4 175.623 243.051 175.89 243.584C176.167 244.117 176.541 244.517 177.01 244.784C177.479 245.051 178.007 245.184 178.594 245.184C179.33 245.184 179.943 245.008 180.434 244.656C180.935 244.293 181.261 243.792 181.41 243.152H182.61C182.407 244.048 181.954 244.768 181.25 245.312C180.546 245.856 179.661 246.128 178.594 246.128C177.773 246.128 177.042 245.947 176.402 245.584C175.762 245.211 175.261 244.688 174.898 244.016C174.535 243.333 174.354 242.539 174.354 241.632ZM184.166 241.616C184.166 240.72 184.342 239.936 184.694 239.264C185.057 238.581 185.553 238.059 186.182 237.696C186.822 237.323 187.542 237.136 188.342 237.136C189.174 237.136 189.889 237.328 190.486 237.712C191.094 238.096 191.532 238.587 191.798 239.184V237.264H192.918V246H191.798V244.064C191.521 244.661 191.078 245.157 190.47 245.552C189.873 245.936 189.158 246.128 188.326 246.128C187.537 246.128 186.822 245.941 186.182 245.568C185.553 245.195 185.057 244.667 184.694 243.984C184.342 243.301 184.166 242.512 184.166 241.616ZM191.798 241.632C191.798 240.928 191.654 240.309 191.366 239.776C191.078 239.243 190.684 238.832 190.182 238.544C189.692 238.256 189.148 238.112 188.55 238.112C187.932 238.112 187.377 238.251 186.886 238.528C186.396 238.805 186.006 239.211 185.718 239.744C185.441 240.267 185.302 240.891 185.302 241.616C185.302 242.331 185.441 242.96 185.718 243.504C186.006 244.037 186.396 244.448 186.886 244.736C187.377 245.013 187.932 245.152 188.55 245.152C189.148 245.152 189.692 245.008 190.182 244.72C190.684 244.432 191.078 244.021 191.366 243.488C191.654 242.955 191.798 242.336 191.798 241.632ZM196.931 238.208V243.632C196.931 244.165 197.033 244.533 197.235 244.736C197.438 244.939 197.795 245.04 198.307 245.04H199.331V246H198.131C197.342 246 196.755 245.819 196.371 245.456C195.987 245.083 195.795 244.475 195.795 243.632V238.208H194.579V237.264H195.795V235.072H196.931V237.264H199.331V238.208H196.931ZM209.082 241.184C209.082 241.568 209.072 241.861 209.05 242.064H201.802C201.834 242.725 201.994 243.291 202.282 243.76C202.57 244.229 202.949 244.587 203.418 244.832C203.888 245.067 204.4 245.184 204.954 245.184C205.68 245.184 206.288 245.008 206.778 244.656C207.28 244.304 207.61 243.829 207.77 243.232H208.954C208.741 244.085 208.282 244.784 207.578 245.328C206.885 245.861 206.01 246.128 204.954 246.128C204.133 246.128 203.397 245.947 202.746 245.584C202.096 245.211 201.584 244.688 201.21 244.016C200.848 243.333 200.666 242.539 200.666 241.632C200.666 240.725 200.848 239.931 201.21 239.248C201.573 238.565 202.08 238.043 202.73 237.68C203.381 237.317 204.122 237.136 204.954 237.136C205.786 237.136 206.512 237.317 207.13 237.68C207.76 238.043 208.24 238.533 208.57 239.152C208.912 239.76 209.082 240.437 209.082 241.184ZM207.946 241.152C207.957 240.501 207.824 239.947 207.546 239.488C207.28 239.029 206.912 238.683 206.442 238.448C205.973 238.213 205.461 238.096 204.906 238.096C204.074 238.096 203.365 238.363 202.778 238.896C202.192 239.429 201.866 240.181 201.802 241.152H207.946ZM214.796 237.136C215.617 237.136 216.332 237.328 216.94 237.712C217.548 238.096 217.985 238.581 218.252 239.168V237.264H219.372V246.224C219.372 247.024 219.196 247.733 218.844 248.352C218.502 248.971 218.022 249.445 217.404 249.776C216.785 250.117 216.081 250.288 215.292 250.288C214.172 250.288 213.238 250.021 212.492 249.488C211.756 248.955 211.297 248.229 211.116 247.312H212.22C212.412 247.92 212.774 248.405 213.308 248.768C213.852 249.131 214.513 249.312 215.292 249.312C215.857 249.312 216.364 249.189 216.812 248.944C217.26 248.709 217.612 248.357 217.868 247.888C218.124 247.419 218.252 246.864 218.252 246.224V244.064C217.974 244.661 217.532 245.157 216.924 245.552C216.326 245.936 215.617 246.128 214.796 246.128C213.996 246.128 213.276 245.941 212.636 245.568C212.006 245.195 211.51 244.667 211.148 243.984C210.796 243.301 210.62 242.512 210.62 241.616C210.62 240.72 210.796 239.936 211.148 239.264C211.51 238.581 212.006 238.059 212.636 237.696C213.276 237.323 213.996 237.136 214.796 237.136ZM218.252 241.632C218.252 240.928 218.108 240.309 217.82 239.776C217.532 239.243 217.137 238.832 216.636 238.544C216.145 238.256 215.601 238.112 215.004 238.112C214.385 238.112 213.83 238.251 213.34 238.528C212.849 238.805 212.46 239.211 212.172 239.744C211.894 240.267 211.756 240.891 211.756 241.616C211.756 242.331 211.894 242.96 212.172 243.504C212.46 244.037 212.849 244.448 213.34 244.736C213.83 245.013 214.385 245.152 215.004 245.152C215.601 245.152 216.145 245.008 216.636 244.72C217.137 244.432 217.532 244.021 217.82 243.488C218.108 242.955 218.252 242.336 218.252 241.632ZM225.752 246.128C224.931 246.128 224.19 245.947 223.528 245.584C222.878 245.211 222.36 244.688 221.976 244.016C221.603 243.333 221.416 242.539 221.416 241.632C221.416 240.725 221.608 239.936 221.992 239.264C222.376 238.581 222.899 238.059 223.56 237.696C224.222 237.323 224.963 237.136 225.784 237.136C226.606 237.136 227.347 237.323 228.008 237.696C228.68 238.059 229.203 238.581 229.576 239.264C229.96 239.936 230.152 240.725 230.152 241.632C230.152 242.528 229.96 243.317 229.576 244C229.192 244.683 228.664 245.211 227.992 245.584C227.32 245.947 226.574 246.128 225.752 246.128ZM225.752 245.152C226.328 245.152 226.862 245.024 227.352 244.768C227.843 244.501 228.238 244.107 228.536 243.584C228.846 243.051 229 242.4 229 241.632C229 240.864 228.851 240.219 228.552 239.696C228.254 239.163 227.859 238.768 227.368 238.512C226.878 238.245 226.344 238.112 225.768 238.112C225.192 238.112 224.659 238.245 224.168 238.512C223.678 238.768 223.283 239.163 222.984 239.696C222.696 240.219 222.552 240.864 222.552 241.632C222.552 242.4 222.696 243.051 222.984 243.584C223.283 244.107 223.672 244.501 224.152 244.768C224.643 245.024 225.176 245.152 225.752 245.152ZM233.314 238.816C233.559 238.272 233.933 237.851 234.434 237.552C234.946 237.253 235.57 237.104 236.306 237.104V238.272H236.002C235.191 238.272 234.541 238.491 234.05 238.928C233.559 239.365 233.314 240.096 233.314 241.12V246H232.194V237.264H233.314V238.816ZM245.191 237.264L240.007 250.112H238.839L240.535 245.952L236.951 237.264H238.183L241.159 244.72L244.039 237.264H245.191Z" fill="#8C8C8C"/>
<rect x="146.164" y="85" width="125" height="69" rx="2" transform="rotate(9.31321 146.164 85)" fill="#F9F9F9"/>
<path d="M210 136C187.333 168.667 127.6 214.4 70 136" stroke="#8C8C8C"/>
<circle cx="210.5" cy="135.5" r="2" fill="#8C8C8C" stroke="#8C8C8C"/>
</svg>
