<svg width="14" height="14" viewBox="0 0 14 14" fill="none" xmlns="http://www.w3.org/2000/svg">
<g clip-path="url(#clip0_3871_6359)">
<path d="M4.66699 7.87467H9.33366M4.66699 4.95801H7.00033M3.55808 11.083C2.80013 11.0083 2.23099 10.7805 1.85066 10.3993C1.16699 9.71626 1.16699 8.61609 1.16699 6.41634V6.12467C1.16699 3.92492 1.16699 2.82476 1.85066 2.14167C2.53433 1.45859 3.63391 1.45801 5.83366 1.45801H8.16699C10.3667 1.45801 11.4669 1.45801 12.15 2.14167C12.8331 2.82534 12.8337 3.92492 12.8337 6.12467V6.41634C12.8337 8.61609 12.8337 9.71626 12.15 10.3993C11.4663 11.0824 10.3667 11.083 8.16699 11.083C7.84033 11.09 7.57958 11.1151 7.32408 11.1734C6.62466 11.3344 5.97716 11.6926 5.33783 12.0041C4.42608 12.4486 3.97049 12.6708 3.68466 12.4626C3.13749 12.0554 3.67241 10.7925 3.79199 10.208" stroke="#323232" stroke-linecap="round" stroke-linejoin="round"/>
</g>
<defs>
<clipPath id="clip0_3871_6359">
<rect width="14" height="14" fill="white"/>
</clipPath>
</defs>
</svg>
