<svg width="21" height="21" viewBox="0 0 21 21" fill="none" xmlns="http://www.w3.org/2000/svg">
<path d="M13.7596 5.12139L13.7596 14.5984C13.7596 16.4196 12.2845 17.8947 10.4633 17.8947C8.64203 17.8947 7.16692 16.4196 7.16692 14.5984L7.16692 4.2973C7.16692 3.7509 7.38397 3.22687 7.77034 2.84051C8.1567 2.45414 8.68073 2.23709 9.22713 2.23709C9.77353 2.23709 10.2976 2.45414 10.6839 2.84051C11.0703 3.22687 11.2873 3.7509 11.2873 4.2973L11.2873 12.9502C11.2873 13.4035 10.9165 13.7743 10.4633 13.7743C10.01 13.7743 9.63918 13.4035 9.63918 12.9502L9.63918 5.12139L8.40305 5.12139L8.40305 12.9502C8.40305 13.4966 8.6201 14.0206 9.00647 14.407C9.39283 14.7934 9.91686 15.0104 10.4633 15.0104C11.0097 15.0104 11.5337 14.7934 11.9201 14.407C12.3064 14.0206 12.5235 13.4966 12.5235 12.9502L12.5235 4.2973C12.5235 2.47607 11.0484 1.00096 9.22713 1.00096C7.4059 1.00096 5.93079 2.47607 5.93079 4.2973L5.93079 14.5984C5.93079 17.1036 7.95804 19.1309 10.4633 19.1309C12.9685 19.1309 14.9957 17.1036 14.9957 14.5984L14.9957 5.12139L13.7596 5.12139Z" fill="black"/>
</svg>
