<svg width="14" height="14" viewBox="0 0 14 14" fill="none" xmlns="http://www.w3.org/2000/svg">
<path d="M9.05969 4.94069C9.10036 4.98132 9.13263 5.02957 9.15465 5.08268C9.17667 5.1358 9.188 5.19273 9.188 5.25022C9.188 5.30772 9.17667 5.36465 9.15465 5.41776C9.13263 5.47087 9.10036 5.51912 9.05969 5.55975L5.55969 9.05975C5.51904 9.1004 5.47078 9.13264 5.41767 9.15464C5.36456 9.17664 5.30764 9.18797 5.25016 9.18797C5.19267 9.18797 5.13575 9.17664 5.08264 9.15464C5.02953 9.13264 4.98127 9.1004 4.94062 9.05975C4.89998 9.0191 4.86773 8.97085 4.84573 8.91774C4.82374 8.86463 4.81241 8.80771 4.81241 8.75022C4.81241 8.69274 4.82374 8.63581 4.84573 8.5827C4.86773 8.52959 4.89998 8.48134 4.94062 8.44069L8.44062 4.94069C8.48126 4.90001 8.52951 4.86774 8.58262 4.84573C8.63573 4.82371 8.69266 4.81238 8.75016 4.81238C8.80765 4.81238 8.86458 4.82371 8.91769 4.84573C8.9708 4.86774 9.01905 4.90001 9.05969 4.94069ZM11.7908 2.2096C11.5064 1.92518 11.1688 1.69957 10.7972 1.54565C10.4256 1.39172 10.0274 1.3125 9.62516 1.3125C9.22296 1.3125 8.8247 1.39172 8.45311 1.54565C8.08154 1.69957 7.74391 1.92518 7.45953 2.2096L5.81562 3.85296C5.73353 3.93505 5.68741 4.04639 5.68741 4.16249C5.68741 4.27858 5.73353 4.38993 5.81562 4.47202C5.89772 4.55411 6.00906 4.60023 6.12516 4.60023C6.24125 4.60023 6.35259 4.55411 6.43469 4.47202L8.07859 2.83139C8.49033 2.4287 9.04426 2.20463 9.62017 2.2078C10.1961 2.21097 10.7475 2.44113 11.1548 2.84833C11.5621 3.25554 11.7923 3.80692 11.7956 4.38283C11.7989 4.95875 11.5749 5.51271 11.1723 5.92452L9.52781 7.56842C9.44572 7.65044 9.39957 7.76172 9.39952 7.87776C9.39947 7.99381 9.44552 8.10512 9.52754 8.18721C9.60956 8.26931 9.72083 8.31545 9.83688 8.31551C9.95292 8.31556 10.0642 8.26951 10.1463 8.18749L11.7908 6.54085C12.0752 6.25646 12.3008 5.91884 12.4547 5.54726C12.6087 5.17568 12.6879 4.77742 12.6879 4.37522C12.6879 3.97302 12.6087 3.57476 12.4547 3.20318C12.3008 2.8316 12.0752 2.49398 11.7908 2.2096ZM7.56562 9.52788L5.92172 11.1718C5.71942 11.3786 5.47809 11.5433 5.21172 11.6562C4.94535 11.7692 4.65921 11.8281 4.36989 11.8297C4.08057 11.8313 3.79381 11.7755 3.5262 11.6655C3.2586 11.5555 3.01548 11.3935 2.81091 11.1889C2.60635 10.9843 2.4444 10.7412 2.33445 10.4735C2.2245 10.2059 2.16874 9.91914 2.17038 9.62982C2.17202 9.3405 2.23105 9.05438 2.34403 8.78803C2.45701 8.52167 2.62171 8.28038 2.82859 8.07811L4.47195 6.43475C4.55405 6.35266 4.60016 6.24132 4.60016 6.12522C4.60016 6.00912 4.55405 5.89778 4.47195 5.81569C4.38986 5.7336 4.27852 5.68748 4.16242 5.68748C4.04632 5.68748 3.93498 5.7336 3.85289 5.81569L2.20953 7.4596C1.63517 8.03396 1.3125 8.81295 1.3125 9.62522C1.3125 10.4375 1.63517 11.2165 2.20953 11.7908C2.78389 12.3652 3.56289 12.6879 4.37516 12.6879C5.18742 12.6879 5.96642 12.3652 6.54078 11.7908L8.18469 10.1464C8.26671 10.0643 8.31276 9.95299 8.31271 9.83694C8.31265 9.7209 8.26651 9.60962 8.18441 9.5276C8.10232 9.44558 7.99101 9.39953 7.87496 9.39959C7.75892 9.39964 7.64764 9.44579 7.56562 9.52788Z" fill="#323232"/>
</svg>
