<svg width="14" height="14" viewBox="0 0 14 14" fill="none" xmlns="http://www.w3.org/2000/svg">
<path d="M11.4656 6.69064C11.5063 6.73127 11.5385 6.77952 11.5605 6.83263C11.5826 6.88575 11.5939 6.94268 11.5939 7.00017C11.5939 7.05766 11.5826 7.1146 11.5605 7.16771C11.5385 7.22082 11.5063 7.26907 11.4656 7.3097L6.97847 11.7941C6.40404 12.3684 5.62497 12.6911 4.81266 12.691C4.00034 12.691 3.22131 12.3682 2.64695 11.7938C2.07259 11.2194 1.74995 10.4403 1.75 9.62799C1.75005 8.81567 2.07279 8.03664 2.64722 7.46228L8.07551 1.95415C8.48561 1.54362 9.042 1.31281 9.62228 1.3125C10.2026 1.31219 10.7592 1.54241 11.1697 1.95251C11.5803 2.36262 11.8111 2.919 11.8114 3.49928C11.8117 4.07956 11.5815 4.6362 11.1714 5.04673L5.74199 10.5549C5.49542 10.8014 5.161 10.9399 4.8123 10.9399C4.4636 10.9399 4.12918 10.8014 3.88262 10.5549C3.63605 10.3083 3.49753 9.97387 3.49753 9.62517C3.49753 9.27647 3.63605 8.94205 3.88262 8.69548L8.43808 4.06783C8.47799 4.02526 8.52601 3.9911 8.57931 3.96736C8.63262 3.94363 8.69013 3.9308 8.74847 3.92962C8.8068 3.92845 8.86479 3.93896 8.919 3.96053C8.97322 3.9821 9.02257 4.01429 9.06416 4.05522C9.10574 4.09615 9.13872 4.14499 9.16115 4.19885C9.18358 4.25272 9.19501 4.31053 9.19477 4.36888C9.19452 4.42723 9.18261 4.48494 9.15972 4.53861C9.13684 4.59229 9.10345 4.64084 9.06152 4.68142L4.50551 9.314C4.46471 9.35447 4.43229 9.40258 4.41009 9.45557C4.38789 9.50857 4.37635 9.56542 4.37612 9.62288C4.37589 9.68034 4.38698 9.73729 4.40876 9.79046C4.43054 9.84363 4.46258 9.892 4.50304 9.93279C4.54351 9.97358 4.59162 10.006 4.64462 10.0282C4.69762 10.0504 4.75447 10.0619 4.81193 10.0622C4.86939 10.0624 4.92633 10.0513 4.97951 10.0295C5.03268 10.0078 5.08104 9.97572 5.12183 9.93525L10.5507 4.42986C10.7972 4.1838 10.936 3.84987 10.9363 3.50152C10.9367 3.15318 10.7986 2.81897 10.5526 2.5724C10.3065 2.32583 9.97258 2.18711 9.62424 2.18675C9.2759 2.18639 8.94168 2.32442 8.69512 2.57048L3.26793 8.07642C3.06461 8.27941 2.90327 8.52046 2.79312 8.7858C2.68296 9.05114 2.62615 9.33558 2.62592 9.62288C2.62569 9.91018 2.68205 10.1947 2.79179 10.4602C2.90152 10.7257 3.06248 10.9671 3.26547 11.1704C3.46846 11.3737 3.7095 11.535 3.97485 11.6452C4.24019 11.7553 4.52463 11.8121 4.81193 11.8124C5.09923 11.8126 5.38376 11.7562 5.64928 11.6465C5.9148 11.5368 6.1561 11.3758 6.35941 11.1728L10.8471 6.68845C10.9294 6.60676 11.0408 6.56109 11.1568 6.5615C11.2728 6.56191 11.3838 6.60836 11.4656 6.69064Z" fill="#323232"/>
</svg>
