<svg width="14" height="14" viewBox="0 0 14 14" fill="none" xmlns="http://www.w3.org/2000/svg">
<g clip-path="url(#clip0_3871_6341)">
<path d="M7.00023 3.9371C7.11626 3.9371 7.22754 3.98319 7.30958 4.06524C7.39163 4.14729 7.43773 4.25857 7.43773 4.3746V7.4371C7.43773 7.55313 7.39163 7.66441 7.30958 7.74646C7.22754 7.82851 7.11626 7.8746 7.00023 7.8746C6.88419 7.8746 6.77291 7.82851 6.69087 7.74646C6.60882 7.66441 6.56273 7.55313 6.56273 7.4371V4.3746C6.56273 4.25857 6.60882 4.14729 6.69087 4.06524C6.77291 3.98319 6.88419 3.9371 7.00023 3.9371ZM6.34398 9.40585C6.34398 9.53564 6.38246 9.66252 6.45457 9.77044C6.52668 9.87836 6.62918 9.96247 6.74909 10.0121C6.869 10.0618 7.00095 10.0748 7.12825 10.0495C7.25555 10.0242 7.37249 9.96167 7.46426 9.86989C7.55604 9.77811 7.61854 9.66118 7.64387 9.53388C7.66919 9.40658 7.65619 9.27463 7.60652 9.15471C7.55685 9.0348 7.47274 8.93231 7.36482 8.8602C7.2569 8.78809 7.13002 8.7496 7.00023 8.7496C6.82618 8.7496 6.65926 8.81874 6.53619 8.94181C6.41312 9.06488 6.34398 9.2318 6.34398 9.40585ZM13.1252 6.9996C13.1255 7.1142 13.1031 7.22773 13.0593 7.33361C13.0155 7.4395 12.9511 7.53564 12.8698 7.61647L7.6171 12.8698C7.45316 13.0327 7.23139 13.1242 7.00023 13.1242C6.76906 13.1242 6.54729 13.0327 6.38335 12.8698L1.13335 7.61647C0.97038 7.45253 0.878906 7.23076 0.878906 6.9996C0.878906 6.76844 0.97038 6.54667 1.13335 6.38272L6.38608 1.12944C6.55003 0.966474 6.7718 0.875 7.00296 0.875C7.23412 0.875 7.45589 0.966474 7.61983 1.12944L12.8726 6.38272C12.9533 6.46379 13.0172 6.56003 13.0606 6.6659C13.1039 6.77178 13.1259 6.88519 13.1252 6.9996ZM12.2502 6.9996L7.00023 1.7496L1.75022 6.9996L7.00023 12.2496L12.2502 6.9996Z" fill="#FF0F00"/>
</g>
<defs>
<clipPath id="clip0_3871_6341">
<rect width="14" height="14" fill="white"/>
</clipPath>
</defs>
</svg>
